<svg xmlns="http://www.w3.org/2000/svg" viewBox="0 0 680 260">
  <defs><linearGradient id="a" x1="0" x2="1" y1="0" y2="1"><stop stop-color="#edf6ff"/><stop offset=".55" stop-color="#d7e8ff"/><stop offset="1" stop-color="#0d6bff"/></linearGradient><linearGradient id="b" x1="0" x2="1"><stop stop-color="#0d6bff"/><stop offset="1" stop-color="#52b6ff"/></linearGradient><filter id="s" x="-20%" y="-20%" width="140%" height="140%"><feDropShadow dx="0" dy="18" stdDeviation="16" flood-color="#0d6bff" flood-opacity=".22"/></filter></defs>
  <path d="M40 218h520c48 0 86-39 86-86 0-47-38-86-86-86H172C101 46 44 104 44 175c0 15-1 29-4 43Z" fill="#eef6ff" opacity=".8"/>
  <g filter="url(#s)"><rect x="274" y="72" width="260" height="120" rx="22" fill="url(#a)" transform="rotate(9 404 132)"/><rect x="298" y="94" width="54" height="64" rx="8" fill="#fff" opacity=".65"/><rect x="370" y="98" width="112" height="10" rx="5" fill="#fff" opacity=".75"/><rect x="370" y="126" width="86" height="10" rx="5" fill="#fff" opacity=".65"/><path d="M398 166c55-11 96-42 127-93" fill="none" stroke="url(#b)" stroke-width="14" stroke-linecap="round"/><path d="m512 76 37-4-13 35" fill="none" stroke="#0d6bff" stroke-width="14" stroke-linecap="round" stroke-linejoin="round"/></g>
  <g opacity=".92"><rect x="126" y="134" width="178" height="74" rx="18" fill="#fff"/><rect x="148" y="154" width="40" height="40" rx="12" fill="#dff0ff"/><path d="M160 174h16M168 166v16" stroke="#0d6bff" stroke-width="6" stroke-linecap="round"/><rect x="203" y="154" width="66" height="10" rx="5" fill="#b9d4ff"/><rect x="203" y="175" width="80" height="10" rx="5" fill="#d7e7ff"/></g>
  <g><rect x="76" y="66" width="122" height="82" rx="18" fill="#fff" opacity=".9"/><path d="M98 126 122 98l24 17 28-34" fill="none" stroke="#0d6bff" stroke-width="8" stroke-linecap="round" stroke-linejoin="round"/><circle cx="98" cy="126" r="5" fill="#0d6bff"/><circle cx="174" cy="81" r="5" fill="#0d6bff"/></g>
  <rect x="478" y="34" width="58" height="58" rx="14" fill="#cfe4ff" opacity=".9"/><rect x="552" y="160" width="48" height="48" rx="12" fill="url(#b)" opacity=".75"/>
</svg>
